<svg width="21" height="21" viewBox="0 0 21 21" fill="none" xmlns="http://www.w3.org/2000/svg">
<path d="M0.0779732 13.2557C0.734113 15.3976 2.04909 17.278 3.83579 18.6294C5.40445 19.81 7.27112 20.53 9.22628 20.7087C11.1814 20.8874 13.1477 20.5176 14.9044 19.6408C16.6611 18.7641 18.1386 17.4151 19.1712 15.7452C20.2037 14.0754 20.7505 12.1508 20.75 10.1875C20.7571 7.89588 20.0121 5.66525 18.6294 3.8378C17.2781 2.0511 15.3976 0.736124 13.2557 0.0799848C13.1145 0.0365163 12.9642 0.0323539 12.8208 0.0679452C12.6775 0.103536 12.5465 0.177535 12.4421 0.281982C12.3376 0.386429 12.2636 0.517374 12.228 0.660732C12.1925 0.804091 12.1966 0.95444 12.2401 1.09561C12.7084 2.64487 12.7477 4.29218 12.3537 5.862C11.9597 7.43183 11.1472 8.86534 10.0027 10.0098C8.85825 11.1543 7.42474 11.9668 5.85491 12.3608C4.28509 12.7548 2.63778 12.7155 1.08852 12.2472C0.94735 12.2037 0.797 12.1995 0.653642 12.2351C0.510283 12.2707 0.379339 12.3447 0.274892 12.4492C0.170444 12.5536 0.0964463 12.6846 0.060855 12.8279C0.0252637 12.9713 0.0294264 13.1216 0.0728948 13.2628L0.0779732 13.2557Z" fill="#CCCCCC"/>
</svg>
