<svg width="26" height="26" viewBox="0 0 26 26" fill="none" xmlns="http://www.w3.org/2000/svg">
<path d="M14.2188 3.25V1.625C14.2188 1.30177 14.0903 0.991774 13.8618 0.763214C13.6332 0.534654 13.3232 0.40625 13 0.40625C12.6768 0.40625 12.3668 0.534654 12.1382 0.763214C11.9097 0.991774 11.7812 1.30177 11.7812 1.625V3.25C11.7812 3.57323 11.9097 3.88323 12.1382 4.11179C12.3668 4.34035 12.6768 4.46875 13 4.46875C13.3232 4.46875 13.6332 4.34035 13.8618 4.11179C14.0903 3.88323 14.2187 3.57323 14.2188 3.25ZM6.09375 13C6.09375 14.3659 6.49879 15.7012 7.25766 16.8369C8.01653 17.9726 9.09514 18.8578 10.3571 19.3805C11.619 19.9033 13.0077 20.04 14.3473 19.7735C15.687 19.5071 16.9176 18.8493 17.8835 17.8835C18.8493 16.9176 19.5071 15.687 19.7735 14.3473C20.04 13.0077 19.9033 11.619 19.3805 10.3571C18.8578 9.09514 17.9726 8.01653 16.8369 7.25766C15.7012 6.49879 14.3659 6.09375 13 6.09375C11.1689 6.09563 9.41339 6.82386 8.11862 8.11862C6.82386 9.41339 6.09563 11.1689 6.09375 13ZM8.53125 13C8.53125 12.1162 8.79334 11.2522 9.28437 10.5173C9.7754 9.78241 10.4733 9.20964 11.2899 8.87141C12.1064 8.53318 13.005 8.44469 13.8718 8.61712C14.7387 8.78954 15.5349 9.21515 16.1599 9.84012C16.7848 10.4651 17.2105 11.2613 17.3829 12.1282C17.5553 12.995 17.4668 13.8936 17.1286 14.7101C16.7904 15.5267 16.2176 16.2246 15.4827 16.7156C14.7478 17.2067 13.8838 17.4688 13 17.4688C11.8152 17.4674 10.6794 16.9962 9.8416 16.1584C9.00384 15.3206 8.53259 14.1848 8.53125 13ZM20.7685 6.95602C20.6551 7.06938 20.5206 7.15931 20.3724 7.22067C20.2243 7.28202 20.0656 7.3136 19.9052 7.3136C19.7449 7.3136 19.5862 7.28202 19.438 7.22067C19.2899 7.15931 19.1553 7.06938 19.042 6.95602C18.9286 6.84265 18.8387 6.70806 18.7773 6.55994C18.7159 6.41182 18.6844 6.25306 18.6844 6.09273C18.6844 5.93241 18.7159 5.77365 18.7773 5.62553C18.8387 5.47741 18.9286 5.34282 19.042 5.22945L20.2607 4.0107C20.4897 3.78175 20.8002 3.65312 21.124 3.65312C21.4478 3.65312 21.7583 3.78175 21.9873 4.0107C22.2162 4.23966 22.3448 4.55019 22.3448 4.87398C22.3448 5.19778 22.2162 5.50831 21.9873 5.73727L20.7685 6.95602ZM20.7685 19.042L21.9873 20.2607C22.1006 20.3741 22.1906 20.5087 22.2519 20.6568C22.3133 20.8049 22.3448 20.9637 22.3448 21.124C22.3448 21.2843 22.3133 21.4431 22.2519 21.5912C22.1906 21.7393 22.1006 21.8739 21.9873 21.9873C21.7583 22.2162 21.4478 22.3448 21.124 22.3448C20.9637 22.3448 20.8049 22.3133 20.6568 22.2519C20.5087 22.1906 20.3741 22.1006 20.2607 21.9873L19.042 20.7685C18.813 20.5396 18.6844 20.229 18.6844 19.9052C18.6844 19.5814 18.813 19.2709 19.042 19.042C19.2709 18.813 19.5814 18.6844 19.9052 18.6844C20.229 18.6844 20.5396 18.813 20.7685 19.042ZM6.09375 7.3125C5.93365 7.31263 5.7751 7.28121 5.62715 7.22004C5.4792 7.15887 5.34475 7.06916 5.23148 6.95602L4.01273 5.73727C3.89937 5.6239 3.80944 5.48931 3.74808 5.34119C3.68673 5.19307 3.65515 5.03431 3.65515 4.87398C3.65515 4.71366 3.68673 4.5549 3.74808 4.40678C3.80944 4.25866 3.89937 4.12407 4.01273 4.0107C4.1261 3.89734 4.26069 3.80741 4.40881 3.74605C4.55693 3.6847 4.71569 3.65312 4.87602 3.65312C5.03634 3.65312 5.1951 3.6847 5.34322 3.74605C5.49134 3.80741 5.62593 3.89734 5.7393 4.0107L6.95805 5.22945C7.12951 5.39992 7.2464 5.61752 7.29384 5.8546C7.34129 6.09168 7.31714 6.33752 7.22449 6.56083C7.13183 6.78415 6.97484 6.97487 6.77349 7.10871C6.57214 7.24256 6.33553 7.3135 6.09375 7.3125ZM5.23148 19.044C5.46044 18.815 5.77097 18.6864 6.09477 18.6864C6.41856 18.6864 6.72909 18.815 6.95805 19.044C7.187 19.2729 7.31563 19.5835 7.31563 19.9073C7.31563 20.2311 7.187 20.5416 6.95805 20.7705L5.7393 21.9893C5.51034 22.2183 5.19981 22.3469 4.87602 22.3469C4.55222 22.3469 4.24169 22.2183 4.01273 21.9893C3.78378 21.7603 3.65515 21.4498 3.65515 21.126C3.65515 20.8022 3.78378 20.4917 4.01273 20.2627L5.23148 19.044ZM21.5312 13C21.5312 12.6768 21.6597 12.3668 21.8882 12.1382C22.1168 11.9097 22.4268 11.7813 22.75 11.7812H24.375C24.6982 11.7813 25.0082 11.9097 25.2368 12.1382C25.4653 12.3668 25.5938 12.6768 25.5938 13C25.5938 13.3232 25.4653 13.6332 25.2368 13.8618C25.0082 14.0903 24.6982 14.2188 24.375 14.2188H22.75C22.4268 14.2188 22.1168 14.0903 21.8882 13.8618C21.6597 13.6332 21.5312 13.3232 21.5312 13ZM13 21.5312C13.3232 21.5312 13.6332 21.6597 13.8618 21.8882C14.0903 22.1168 14.2187 22.4268 14.2188 22.75V24.375C14.2187 24.6982 14.0903 25.0082 13.8618 25.2368C13.6332 25.4653 13.3232 25.5938 13 25.5938C12.6768 25.5938 12.3668 25.4653 12.1382 25.2368C11.9097 25.0082 11.7812 24.6982 11.7812 24.375V22.75C11.7812 22.4268 11.9097 22.1168 12.1382 21.8882C12.3668 21.6597 12.6768 21.5312 13 21.5312ZM1.625 11.7812H3.25C3.57323 11.7813 3.88323 11.9097 4.11179 12.1382C4.34035 12.3668 4.46875 12.6768 4.46875 13C4.46875 13.3232 4.34035 13.6332 4.11179 13.8618C3.88323 14.0903 3.57323 14.2188 3.25 14.2188H1.625C1.30177 14.2188 0.991774 14.0903 0.763214 13.8618C0.534654 13.6332 0.40625 13.3232 0.40625 13C0.40625 12.6768 0.534654 12.3668 0.763214 12.1382C0.991774 11.9097 1.30177 11.7813 1.625 11.7812Z" fill="#CCCCCC"/>
</svg>
